<svg width="52" height="52" viewBox="0 0 52 52" fill="none" xmlns="http://www.w3.org/2000/svg">
<circle cx="26" cy="26" r="26" fill="white"/>
<path d="M45.611 22.083H44V22H26V30H37.303C35.654 34.657 31.223 38 26 38C19.373 38 14 32.627 14 26C14 19.373 19.373 14 26 14C29.059 14 31.842 15.154 33.961 17.039L39.618 11.382C36.046 8.053 31.268 6 26 6C14.955 6 6 14.955 6 26C6 37.045 14.955 46 26 46C37.045 46 46 37.045 46 26C46 24.659 45.862 23.35 45.611 22.083Z" fill="#FFC107"/>
<path d="M8.306 16.691L14.877 21.51C16.655 17.108 20.961 14 26 14C29.059 14 31.842 15.154 33.961 17.039L39.618 11.382C36.046 8.053 31.268 6 26 6C18.318 6 11.656 10.337 8.306 16.691Z" fill="#FF3D00"/>
<path d="M26 46C31.166 46 35.86 44.023 39.409 40.808L33.219 35.57C31.1436 37.1484 28.6075 38.0021 26 38C20.798 38 16.381 34.683 14.717 30.054L8.19501 35.079C11.505 41.556 18.227 46 26 46Z" fill="#4CAF50"/>
<path d="M45.611 22.083H44V22H26V30H37.303C36.5142 32.2164 35.0934 34.1532 33.216 35.571L33.219 35.569L39.409 40.807C38.971 41.205 46 36 46 26C46 24.659 45.862 23.35 45.611 22.083Z" fill="#1976D2"/>
</svg>
