<svg width="93" height="100" viewBox="0 0 93 100" fill="none" xmlns="http://www.w3.org/2000/svg">
<g clip-path="url(#clip0_485_9)">
<path d="M81.3421 18.4933L53.165 2.22874C50.633 0.765528 47.7602 -0.00485229 44.8358 -0.00485229C41.9114 -0.00485229 39.0386 0.765528 36.5066 2.22874L8.34689 18.4933C5.81546 19.9545 3.71338 22.0564 2.25203 24.5878C0.790672 27.1191 0.0215609 29.9906 0.0220344 32.9134V65.4397C0.0211882 68.3623 0.790169 71.2335 2.25159 73.7644C3.713 76.2953 5.8153 78.3967 8.34689 79.8569L36.5066 96.1331C39.0372 97.5941 41.9079 98.3633 44.83 98.3633C47.7521 98.3633 50.6228 97.5941 53.1534 96.1331L81.3305 79.8685C83.8655 78.4083 85.9709 76.3056 87.4345 73.7725C88.898 71.2394 89.668 68.3652 89.6669 65.4397V32.9134C89.6668 29.9907 88.8975 27.1194 87.4362 24.5882C85.9749 22.057 83.8731 19.955 81.3421 18.4933V18.4933ZM44.8575 73.5821C41.8362 58.9721 33.9471 45.8195 22.4803 36.2752C29.6539 38.8577 37.2216 40.1745 44.8459 40.1669C52.4663 40.1724 60.0298 38.8556 67.2 36.2752C55.7407 45.8222 47.8598 58.9748 44.8459 73.5821H44.8575Z" fill="#43C9ED"/>
</g>
<g clip-path="url(#clip1_485_9)">
<path d="M83.8012 20.1327L55.6241 3.86809C53.0921 2.40487 50.2193 1.63449 47.2949 1.63449C44.3705 1.63449 41.4977 2.40487 38.9657 3.86809L10.806 20.1327C8.27457 21.5939 6.17249 23.6958 4.71113 26.2271C3.24978 28.7584 2.48067 31.6299 2.48114 34.5528V67.079C2.48029 70.0016 3.24928 72.8728 4.71069 75.4037C6.17211 77.9347 8.2744 80.036 10.806 81.4963L38.9657 97.7724C41.4963 99.2335 44.367 100.003 47.2891 100.003C50.2112 100.003 53.0819 99.2335 55.6125 97.7724L83.7896 81.5078C86.3247 80.0476 88.43 77.945 89.8936 75.4119C91.3571 72.8787 92.1272 70.0046 92.126 67.079V34.5528C92.1259 31.63 91.3566 28.7588 89.8953 26.2276C88.434 23.6963 86.3322 21.5943 83.8012 20.1327V20.1327ZM47.3166 75.2215C44.2953 60.6115 36.4062 47.4589 24.9394 37.9146C32.113 40.497 39.6807 41.8138 47.305 41.8062C54.9254 41.8117 62.4889 40.495 69.6591 37.9146C58.1998 47.4615 50.3189 60.6141 47.305 75.2215H47.3166Z" fill="white"/>
</g>
<defs>
<clipPath id="clip0_485_9">
<rect width="89.6449" height="98.3607" fill="white" transform="translate(0.0220337)"/>
</clipPath>
<clipPath id="clip1_485_9">
<rect width="89.6449" height="98.3607" fill="white" transform="translate(2.48114 1.63934)"/>
</clipPath>
</defs>
</svg>
